<mxfile host="app.diagrams.net" modified="2023-06-08T01:32:45.441Z" agent="Mozilla/5.0 (Windows NT 10.0; Win64; x64) AppleWebKit/537.36 (KHTML, like Gecko) Chrome/114.0.0.0 Safari/537.36" etag="SHAxYchiorMsuXJRV9NK" version="21.3.7" type="device">
  <diagram name="페이지-1" id="HHPIJntgU77cTyBElUgp">
    <mxGraphModel dx="1481" dy="825" grid="1" gridSize="10" guides="1" tooltips="1" connect="1" arrows="1" fold="1" page="1" pageScale="1" pageWidth="4681" pageHeight="3300" math="0" shadow="0">
      <root>
        <mxCell id="0" />
        <mxCell id="1" parent="0" />
        <mxCell id="uiuwQqcr13MOk-0_444Z-14" style="edgeStyle=orthogonalEdgeStyle;rounded=0;orthogonalLoop=1;jettySize=auto;html=1;entryX=0;entryY=0.5;entryDx=0;entryDy=0;" edge="1" parent="1" source="uiuwQqcr13MOk-0_444Z-1" target="uiuwQqcr13MOk-0_444Z-4">
          <mxGeometry relative="1" as="geometry" />
        </mxCell>
        <mxCell id="uiuwQqcr13MOk-0_444Z-1" value="사용자" style="shape=umlActor;verticalLabelPosition=bottom;verticalAlign=top;html=1;outlineConnect=0;" vertex="1" parent="1">
          <mxGeometry x="260" y="285" width="30" height="60" as="geometry" />
        </mxCell>
        <mxCell id="uiuwQqcr13MOk-0_444Z-22" style="edgeStyle=orthogonalEdgeStyle;rounded=0;orthogonalLoop=1;jettySize=auto;html=1;entryX=0;entryY=0.5;entryDx=0;entryDy=0;" edge="1" parent="1" source="uiuwQqcr13MOk-0_444Z-4" target="uiuwQqcr13MOk-0_444Z-15">
          <mxGeometry relative="1" as="geometry" />
        </mxCell>
        <mxCell id="uiuwQqcr13MOk-0_444Z-4" value="시작화면" style="ellipse;whiteSpace=wrap;html=1;" vertex="1" parent="1">
          <mxGeometry x="390" y="290" width="120" height="50" as="geometry" />
        </mxCell>
        <mxCell id="uiuwQqcr13MOk-0_444Z-6" value="최신영화" style="swimlane;fontStyle=0;childLayout=stackLayout;horizontal=1;startSize=30;horizontalStack=0;resizeParent=1;resizeParentMax=0;resizeLast=0;collapsible=1;marginBottom=0;whiteSpace=wrap;html=1;" vertex="1" parent="1">
          <mxGeometry x="365" y="350" width="170" height="180" as="geometry" />
        </mxCell>
        <mxCell id="uiuwQqcr13MOk-0_444Z-7" value="영화명" style="text;strokeColor=none;fillColor=none;align=left;verticalAlign=middle;spacingLeft=4;spacingRight=4;overflow=hidden;points=[[0,0.5],[1,0.5]];portConstraint=eastwest;rotatable=0;whiteSpace=wrap;html=1;" vertex="1" parent="uiuwQqcr13MOk-0_444Z-6">
          <mxGeometry y="30" width="170" height="30" as="geometry" />
        </mxCell>
        <mxCell id="uiuwQqcr13MOk-0_444Z-8" value="감독" style="text;strokeColor=none;fillColor=none;align=left;verticalAlign=middle;spacingLeft=4;spacingRight=4;overflow=hidden;points=[[0,0.5],[1,0.5]];portConstraint=eastwest;rotatable=0;whiteSpace=wrap;html=1;" vertex="1" parent="uiuwQqcr13MOk-0_444Z-6">
          <mxGeometry y="60" width="170" height="30" as="geometry" />
        </mxCell>
        <mxCell id="uiuwQqcr13MOk-0_444Z-9" value="출연진" style="text;strokeColor=none;fillColor=none;align=left;verticalAlign=middle;spacingLeft=4;spacingRight=4;overflow=hidden;points=[[0,0.5],[1,0.5]];portConstraint=eastwest;rotatable=0;whiteSpace=wrap;html=1;" vertex="1" parent="uiuwQqcr13MOk-0_444Z-6">
          <mxGeometry y="90" width="170" height="30" as="geometry" />
        </mxCell>
        <mxCell id="uiuwQqcr13MOk-0_444Z-12" value="개봉일자" style="text;strokeColor=none;fillColor=none;align=left;verticalAlign=middle;spacingLeft=4;spacingRight=4;overflow=hidden;points=[[0,0.5],[1,0.5]];portConstraint=eastwest;rotatable=0;whiteSpace=wrap;html=1;" vertex="1" parent="uiuwQqcr13MOk-0_444Z-6">
          <mxGeometry y="120" width="170" height="30" as="geometry" />
        </mxCell>
        <mxCell id="uiuwQqcr13MOk-0_444Z-13" value="영화설명" style="text;strokeColor=none;fillColor=none;align=left;verticalAlign=middle;spacingLeft=4;spacingRight=4;overflow=hidden;points=[[0,0.5],[1,0.5]];portConstraint=eastwest;rotatable=0;whiteSpace=wrap;html=1;" vertex="1" parent="uiuwQqcr13MOk-0_444Z-6">
          <mxGeometry y="150" width="170" height="30" as="geometry" />
        </mxCell>
        <mxCell id="uiuwQqcr13MOk-0_444Z-25" style="edgeStyle=orthogonalEdgeStyle;rounded=0;orthogonalLoop=1;jettySize=auto;html=1;entryX=0;entryY=0.5;entryDx=0;entryDy=0;" edge="1" parent="1" source="uiuwQqcr13MOk-0_444Z-15" target="uiuwQqcr13MOk-0_444Z-24">
          <mxGeometry relative="1" as="geometry" />
        </mxCell>
        <mxCell id="uiuwQqcr13MOk-0_444Z-15" value="영화검색" style="ellipse;whiteSpace=wrap;html=1;" vertex="1" parent="1">
          <mxGeometry x="630" y="290" width="120" height="50" as="geometry" />
        </mxCell>
        <mxCell id="uiuwQqcr13MOk-0_444Z-16" value="영화검색" style="swimlane;fontStyle=0;childLayout=stackLayout;horizontal=1;startSize=30;horizontalStack=0;resizeParent=1;resizeParentMax=0;resizeLast=0;collapsible=1;marginBottom=0;whiteSpace=wrap;html=1;" vertex="1" parent="1">
          <mxGeometry x="620" y="350" width="200" height="180" as="geometry" />
        </mxCell>
        <mxCell id="uiuwQqcr13MOk-0_444Z-17" value="제목으로 검색하기" style="text;strokeColor=none;fillColor=none;align=left;verticalAlign=middle;spacingLeft=4;spacingRight=4;overflow=hidden;points=[[0,0.5],[1,0.5]];portConstraint=eastwest;rotatable=0;whiteSpace=wrap;html=1;" vertex="1" parent="uiuwQqcr13MOk-0_444Z-16">
          <mxGeometry y="30" width="200" height="30" as="geometry" />
        </mxCell>
        <mxCell id="uiuwQqcr13MOk-0_444Z-18" value="장르로 검색하기" style="text;strokeColor=none;fillColor=none;align=left;verticalAlign=middle;spacingLeft=4;spacingRight=4;overflow=hidden;points=[[0,0.5],[1,0.5]];portConstraint=eastwest;rotatable=0;whiteSpace=wrap;html=1;" vertex="1" parent="uiuwQqcr13MOk-0_444Z-16">
          <mxGeometry y="60" width="200" height="30" as="geometry" />
        </mxCell>
        <mxCell id="uiuwQqcr13MOk-0_444Z-19" value="감독으로 검색하기" style="text;strokeColor=none;fillColor=none;align=left;verticalAlign=middle;spacingLeft=4;spacingRight=4;overflow=hidden;points=[[0,0.5],[1,0.5]];portConstraint=eastwest;rotatable=0;whiteSpace=wrap;html=1;" vertex="1" parent="uiuwQqcr13MOk-0_444Z-16">
          <mxGeometry y="90" width="200" height="30" as="geometry" />
        </mxCell>
        <mxCell id="uiuwQqcr13MOk-0_444Z-20" value="주연으로 검색하기" style="text;strokeColor=none;fillColor=none;align=left;verticalAlign=middle;spacingLeft=4;spacingRight=4;overflow=hidden;points=[[0,0.5],[1,0.5]];portConstraint=eastwest;rotatable=0;whiteSpace=wrap;html=1;" vertex="1" parent="uiuwQqcr13MOk-0_444Z-16">
          <mxGeometry y="120" width="200" height="30" as="geometry" />
        </mxCell>
        <mxCell id="uiuwQqcr13MOk-0_444Z-21" value="내용(키워드)로 검색하기" style="text;strokeColor=none;fillColor=none;align=left;verticalAlign=middle;spacingLeft=4;spacingRight=4;overflow=hidden;points=[[0,0.5],[1,0.5]];portConstraint=eastwest;rotatable=0;whiteSpace=wrap;html=1;" vertex="1" parent="uiuwQqcr13MOk-0_444Z-16">
          <mxGeometry y="150" width="200" height="30" as="geometry" />
        </mxCell>
        <mxCell id="uiuwQqcr13MOk-0_444Z-27" style="edgeStyle=orthogonalEdgeStyle;rounded=0;orthogonalLoop=1;jettySize=auto;html=1;entryX=0;entryY=0.5;entryDx=0;entryDy=0;" edge="1" parent="1" source="uiuwQqcr13MOk-0_444Z-24" target="uiuwQqcr13MOk-0_444Z-26">
          <mxGeometry relative="1" as="geometry" />
        </mxCell>
        <mxCell id="uiuwQqcr13MOk-0_444Z-31" style="edgeStyle=orthogonalEdgeStyle;rounded=0;orthogonalLoop=1;jettySize=auto;html=1;entryX=0;entryY=0.5;entryDx=0;entryDy=0;" edge="1" parent="1" source="uiuwQqcr13MOk-0_444Z-24" target="uiuwQqcr13MOk-0_444Z-28">
          <mxGeometry relative="1" as="geometry" />
        </mxCell>
        <mxCell id="uiuwQqcr13MOk-0_444Z-32" style="edgeStyle=orthogonalEdgeStyle;rounded=0;orthogonalLoop=1;jettySize=auto;html=1;entryX=0;entryY=0.5;entryDx=0;entryDy=0;" edge="1" parent="1" source="uiuwQqcr13MOk-0_444Z-24" target="uiuwQqcr13MOk-0_444Z-29">
          <mxGeometry relative="1" as="geometry" />
        </mxCell>
        <mxCell id="uiuwQqcr13MOk-0_444Z-33" style="edgeStyle=orthogonalEdgeStyle;rounded=0;orthogonalLoop=1;jettySize=auto;html=1;entryX=0;entryY=0.5;entryDx=0;entryDy=0;" edge="1" parent="1" source="uiuwQqcr13MOk-0_444Z-24" target="uiuwQqcr13MOk-0_444Z-30">
          <mxGeometry relative="1" as="geometry" />
        </mxCell>
        <mxCell id="uiuwQqcr13MOk-0_444Z-24" value="자세히 보기" style="ellipse;whiteSpace=wrap;html=1;" vertex="1" parent="1">
          <mxGeometry x="910" y="290" width="120" height="50" as="geometry" />
        </mxCell>
        <mxCell id="uiuwQqcr13MOk-0_444Z-44" style="edgeStyle=orthogonalEdgeStyle;rounded=0;orthogonalLoop=1;jettySize=auto;html=1;entryX=0;entryY=0;entryDx=0;entryDy=52.5;entryPerimeter=0;" edge="1" parent="1" source="uiuwQqcr13MOk-0_444Z-26" target="uiuwQqcr13MOk-0_444Z-43">
          <mxGeometry relative="1" as="geometry" />
        </mxCell>
        <mxCell id="uiuwQqcr13MOk-0_444Z-26" value="영화평남기기" style="ellipse;whiteSpace=wrap;html=1;" vertex="1" parent="1">
          <mxGeometry x="1150" y="230" width="120" height="50" as="geometry" />
        </mxCell>
        <mxCell id="uiuwQqcr13MOk-0_444Z-35" style="edgeStyle=orthogonalEdgeStyle;rounded=0;orthogonalLoop=1;jettySize=auto;html=1;entryX=0;entryY=0.5;entryDx=0;entryDy=0;" edge="1" parent="1" source="uiuwQqcr13MOk-0_444Z-28" target="uiuwQqcr13MOk-0_444Z-34">
          <mxGeometry relative="1" as="geometry" />
        </mxCell>
        <mxCell id="uiuwQqcr13MOk-0_444Z-28" value="영화예매하기" style="ellipse;whiteSpace=wrap;html=1;" vertex="1" parent="1">
          <mxGeometry x="1150" y="300" width="120" height="50" as="geometry" />
        </mxCell>
        <mxCell id="uiuwQqcr13MOk-0_444Z-37" style="edgeStyle=orthogonalEdgeStyle;rounded=0;orthogonalLoop=1;jettySize=auto;html=1;entryX=0;entryY=0.5;entryDx=0;entryDy=0;" edge="1" parent="1" source="uiuwQqcr13MOk-0_444Z-29" target="uiuwQqcr13MOk-0_444Z-36">
          <mxGeometry relative="1" as="geometry" />
        </mxCell>
        <mxCell id="uiuwQqcr13MOk-0_444Z-29" value="OTT링크 바로가기" style="ellipse;whiteSpace=wrap;html=1;" vertex="1" parent="1">
          <mxGeometry x="1150" y="370" width="120" height="50" as="geometry" />
        </mxCell>
        <mxCell id="uiuwQqcr13MOk-0_444Z-30" value="공유하기" style="ellipse;whiteSpace=wrap;html=1;" vertex="1" parent="1">
          <mxGeometry x="1150" y="440" width="120" height="50" as="geometry" />
        </mxCell>
        <mxCell id="uiuwQqcr13MOk-0_444Z-34" value="제휴영화관 링크" style="ellipse;whiteSpace=wrap;html=1;" vertex="1" parent="1">
          <mxGeometry x="1330" y="300" width="120" height="50" as="geometry" />
        </mxCell>
        <mxCell id="uiuwQqcr13MOk-0_444Z-36" value="OTT 연결" style="ellipse;whiteSpace=wrap;html=1;" vertex="1" parent="1">
          <mxGeometry x="1330" y="370" width="120" height="50" as="geometry" />
        </mxCell>
        <mxCell id="uiuwQqcr13MOk-0_444Z-38" value="공유하기" style="swimlane;fontStyle=0;childLayout=stackLayout;horizontal=1;startSize=30;horizontalStack=0;resizeParent=1;resizeParentMax=0;resizeLast=0;collapsible=1;marginBottom=0;whiteSpace=wrap;html=1;" vertex="1" parent="1">
          <mxGeometry x="1140" y="510" width="140" height="120" as="geometry" />
        </mxCell>
        <mxCell id="uiuwQqcr13MOk-0_444Z-39" value="SNS 링크보내기" style="text;strokeColor=none;fillColor=none;align=left;verticalAlign=middle;spacingLeft=4;spacingRight=4;overflow=hidden;points=[[0,0.5],[1,0.5]];portConstraint=eastwest;rotatable=0;whiteSpace=wrap;html=1;" vertex="1" parent="uiuwQqcr13MOk-0_444Z-38">
          <mxGeometry y="30" width="140" height="30" as="geometry" />
        </mxCell>
        <mxCell id="uiuwQqcr13MOk-0_444Z-40" value="카카오 링크보내기" style="text;strokeColor=none;fillColor=none;align=left;verticalAlign=middle;spacingLeft=4;spacingRight=4;overflow=hidden;points=[[0,0.5],[1,0.5]];portConstraint=eastwest;rotatable=0;whiteSpace=wrap;html=1;" vertex="1" parent="uiuwQqcr13MOk-0_444Z-38">
          <mxGeometry y="60" width="140" height="30" as="geometry" />
        </mxCell>
        <mxCell id="uiuwQqcr13MOk-0_444Z-41" value="FACE에 공유하기" style="text;strokeColor=none;fillColor=none;align=left;verticalAlign=middle;spacingLeft=4;spacingRight=4;overflow=hidden;points=[[0,0.5],[1,0.5]];portConstraint=eastwest;rotatable=0;whiteSpace=wrap;html=1;" vertex="1" parent="uiuwQqcr13MOk-0_444Z-38">
          <mxGeometry y="90" width="140" height="30" as="geometry" />
        </mxCell>
        <mxCell id="uiuwQqcr13MOk-0_444Z-43" value="" style="shape=cylinder3;whiteSpace=wrap;html=1;boundedLbl=1;backgroundOutline=1;size=15;" vertex="1" parent="1">
          <mxGeometry x="1370" y="200" width="60" height="80" as="geometry" />
        </mxCell>
      </root>
    </mxGraphModel>
  </diagram>
</mxfile>
